<?xml version="1.0" encoding="utf-8"?>
<!-- Generator: Adobe Illustrator 16.0.0, SVG Export Plug-In . SVG Version: 6.00 Build 0)  -->
<!DOCTYPE svg PUBLIC "-//W3C//DTD SVG 1.1//EN" "http://www.w3.org/Graphics/SVG/1.1/DTD/svg11.dtd">
<svg version="1.1" xmlns="http://www.w3.org/2000/svg" xmlns:xlink="http://www.w3.org/1999/xlink" x="0px" y="0px" width="70px"
	 height="70px" viewBox="0 0 70 70" enable-background="new 0 0 70 70" xml:space="preserve">
<g id="Layer_1">
	<g>
		<g id="path2551_3_">
			<path d="M38.603,14.5c-0.098,0-0.195,0-0.293,0c-5.757,0-11.65-1.531-11.77-4.679l1.999,0.027
				c0.038,1.007,3.434,2.964,9.788,3.014c6.187,0.08,10.25-1.683,10.337-2.923l1.995-0.055C50.434,13.062,44.474,14.5,38.603,14.5z"
				/>
		</g>
		<g id="path2553_3_">
			<path d="M38.575,21.5c-0.101,0-0.2,0-0.298,0c-4.788,0-12.938-1.102-13.115-4.315l1.997-0.187
				c0.254,0.754,4.305,2.186,11.131,2.233c7.131,0.044,11.484-1.511,11.74-2.316l1.989,0.339C51.723,20.5,43.57,21.5,38.575,21.5z"
				/>
		</g>
		<g id="path2555_3_">
			<path d="M38.671,30.77c-0.179,0-0.355-0.001-0.533-0.003c-9.05-0.074-18.316-2.361-18.512-6.589l1.998-0.092
				c0.088,1.898,6.419,4.598,16.532,4.681c10.56,0.11,17.258-2.634,17.41-4.643l1.994,0.15C57.238,28.528,47.688,30.77,38.671,30.77
				z"/>
		</g>
		<g id="path2557_3_">
			<path d="M38.59,41.074c-0.183,0-0.364-0.001-0.546-0.002c-11.041-0.076-22.333-2.669-22.551-7.477l1.998-0.09
				c0.101,2.218,7.483,5.476,20.568,5.566c13.143,0.132,21.457-3.149,21.651-5.524l1.993,0.162
				C61.309,38.527,49.604,41.074,38.59,41.074z"/>
		</g>
		<g id="path2559_3_">
			<path d="M38.65,51.503c-0.227,0-0.452-0.001-0.679-0.003c-12.351-0.072-24.99-2.961-25.246-8.341l1.998-0.096
				c0.142,2.981,9.73,6.357,23.262,6.437c14.108,0.106,24.227-3.268,24.49-6.383l1.993,0.168
				C64.015,48.664,50.957,51.503,38.65,51.503z"/>
		</g>
		<g id="path2561_3_">
			<path d="M38.602,60.581c-0.155,0-0.309-0.001-0.464-0.002c-9.051-0.067-18.317-2.512-18.512-7.051l1.998-0.086
				c0.102,2.372,6.916,5.064,16.531,5.137c0.157,0.001,0.314,0.002,0.469,0.002c9.525,0,16.77-2.662,16.941-5.105l1.995,0.141
				C57.241,58.173,47.643,60.581,38.602,60.581z"/>
		</g>
		<g id="path4138_3_">
			<path d="M38.551,68.5c-0.081,0-0.161,0-0.241,0c-5.749,0-11.622-1.994-11.729-5.539L28.58,62.9
				c0.044,1.454,3.775,3.527,9.752,3.6c0.083,0.001,0.167,0.001,0.25,0.001c6.084,0,9.941-2.077,10.037-3.598l1.996,0.126
				C50.389,66.604,44.276,68.5,38.551,68.5z"/>
		</g>
		<g id="path2567_3_">
			<path d="M38.622,7.5h-0.444c-1.733,0-16.947-0.371-17.163-4.498l-0.055-1.139l17.633-0.069l17.723,0.062l-0.138,1.282
				C55.672,7.219,40.365,7.5,38.622,7.5z"/>
		</g>
	</g>
</g>
<g id="nyt_x5F_exporter_x5F_info" display="none">
</g>
</svg>
